<?xml version="1.0" encoding="UTF-8"?>
<svg id="Layer_1" xmlns="http://www.w3.org/2000/svg" version="1.1" xmlns:xlink="http://www.w3.org/1999/xlink" viewBox="0 0 146.1 144">
  <!-- Generator: Adobe Illustrator 29.4.0, SVG Export Plug-In . SVG Version: 2.1.0 Build 152)  -->
  <defs>
    <style>
      .st0 {
        fill: url(#linear-gradient2);
      }

      .st1 {
        fill: #f3e89e;
      }

      .st2 {
        fill: url(#linear-gradient1);
      }

      .st3 {
        fill: #ecdb95;
      }

      .st4 {
        fill: url(#linear-gradient);
      }
    </style>
    <linearGradient id="linear-gradient" x1="499.7" y1="493.4" x2="422.7" y2="493.5" gradientTransform="translate(-413.2 -423.9)" gradientUnits="userSpaceOnUse">
      <stop offset="0" stop-color="#d4c892"/>
      <stop offset=".2" stop-color="#f3e89c"/>
      <stop offset="1" stop-color="#896031"/>
    </linearGradient>
    <linearGradient id="linear-gradient1" x1="453.8" y1="495.6" x2="519.1" y2="496.3" gradientTransform="translate(-413.2 -423.9)" gradientUnits="userSpaceOnUse">
      <stop offset="0" stop-color="#ab9464"/>
      <stop offset=".5" stop-color="#f3e89e"/>
      <stop offset="1" stop-color="#ac9a6a"/>
    </linearGradient>
    <linearGradient id="linear-gradient2" x1="473.1" y1="498.1" x2="549.6" y2="498.4" gradientTransform="translate(-413.2 -423.9)" gradientUnits="userSpaceOnUse">
      <stop offset="0" stop-color="#d7c997"/>
      <stop offset=".2" stop-color="#f3e99f"/>
      <stop offset="1" stop-color="#875c2b"/>
    </linearGradient>
  </defs>
  <path class="st4" d="M59.9,20.4c-2.1.9-4.7,1.5-7,2.4-29.4,11.6-41.9,46-26.9,74,4.8,8.9,13,17,21.9,21.6s3.3,1.5,4.9,2.3c.2.3-.1,1-.2,1.4-.6,2.1-1.9,5.8-2.8,7.8s-.2.7-.6.7-2.1-.8-2.5-1c-17.2-7.4-30.5-23.7-35.3-41.6C2.6,54.8,21.8,21.5,54,11.3c9.1-2.9,21.1-3.7,30.5-1.9s2.3.4,2.6.6.3.2.2.4c-2.2,3-4.3,6.1-6.5,9.1-5.5-.7-11-.7-16.5,0s-4.1.6-4.4.7Z"/>
  <path class="st1" d="M96.2,62c.1,0,.1,0,0,.1-7.1,0-14.2,0-21.3,0-.5-.5,0-.7.1-1.1,0,.3-.3.8,0,1,7,.1,14.1,0,21.1,0Z"/>
  <path class="st1" d="M70,81.1c-.2.2-.5.1-.8.2-5,.1-10.1,0-15.1,0-.1,0-.1,0,0-.1,5.3,0,10.7-.2,15.9,0Z"/>
  <path class="st3" d="M102.8,62c-.2.2-.6.1-.8.1-1.9,0-3.8,0-5.8,0h0c2.2-.1,4.4-.2,6.6-.1Z"/>
  <g>
    <path class="st2" d="M75.1,61c-.1.2-.4,1-.1,1,7.1,0,14.2.2,21.2.2,2.2,0,4.4,0,6.6-.1,1.4,0,2.8,0,4.2,0,.2.2-.8,1.3-1,1.5-11.3,15.7-23.2,31-34.7,46.6-6.7,9.2-13.2,18.5-19.9,27.7-.3.4-1.5,1.9-1.1.5s1-2.3,1.4-3.4c5.8-15.2,11.3-30.3,17-45.5s2.3-5.5,3.2-8.3c-.6-.2-1.2-.1-1.9-.1-5.3.1-10.6.1-15.9,0-4.8,0-9.5.1-14.3,0-.2,0,.2-.6.3-.7,3.2-3.8,6.4-8.2,9.4-12.2,13.2-17.6,26.2-35.3,39-53,2.5-3.4,4.9-6.9,7.5-10.2.2.1,0,.5,0,.7-.9,2.9-2.4,5.9-3.5,8.7-5.1,13.5-10.1,27.1-15.1,40.7-.7,1.8-1.4,4.2-2.3,5.8Z"/>
    <path class="st0" d="M97.1,13.4c.2,0,3.4,1.3,3.8,1.5,24,11.1,38.5,37.1,35.7,63.5-3.8,35.2-35.9,60.9-71.3,56.3-.8-.1-5.6-.8-5.9-1.3s1-1.6,1.2-2c.6-.9,4.7-7,5.2-7.2,6.7.9,13.4.4,20-1.1,36.9-8.6,53.2-53,29.9-83.3-5.7-7.4-13.5-13.2-22.1-16.8.8-3.1,2.1-6,3-9.1,0-.2.2-.4.4-.5Z"/>
    <path class="st3" d="M40.2,80.5l-.3.6c4.8,0,9.5,0,14.3,0h0c-4.8.1-9.6.1-14.4.1-.1-.5.3-.5.4-.7Z"/>
  </g>
</svg>